<?xml version="1.0" standalone="no"?>
<!DOCTYPE svg PUBLIC "-//W3C//DTD SVG 20010904//EN"
 "http://www.w3.org/TR/2001/REC-SVG-20010904/DTD/svg10.dtd">
<svg version="1.0" xmlns="http://www.w3.org/2000/svg"
 width="460.000000pt" height="460.000000pt" viewBox="0 0 460.000000 460.000000"
 preserveAspectRatio="xMidYMid meet">
<metadata>
Created by potrace 1.14, written by Peter Selinger 2001-2017
</metadata>
<g transform="translate(0.000000,460.000000) scale(0.100000,-0.100000)"
fill="#000000" stroke="none">
<path d="M2477 3797 c-17 -21 -23 -22 -225 -23 -239 -2 -324 -7 -441 -29 -82
-16 -88 -19 -202 -106 l-118 -89 -111 57 -110 57 -68 -12 c-69 -13 -95 -19
-99 -22 -2 -2 -6 -3 -10 -4 -13 -2 -75 -27 -129 -51 -28 -13 -68 -25 -90 -27
-60 -6 -109 -36 -140 -85 -28 -45 -30 -51 -37 -109 -2 -17 -15 -55 -29 -85
-49 -102 -74 -164 -93 -227 -14 -47 -23 -64 -39 -67 -26 -5 -123 -24 -162 -31
-44 -8 -46 -14 -46 -136 0 -36 5 -82 11 -100 16 -48 76 -109 94 -95 2 1 11 -4
19 -10 10 -9 15 -37 17 -100 3 -124 16 -289 26 -344 3 -13 7 -41 11 -63 10
-70 52 -189 85 -240 30 -49 31 -52 24 -135 -3 -47 -8 -162 -11 -256 -3 -93 -8
-213 -11 -265 -9 -155 -9 -554 0 -715 5 -82 11 -220 13 -305 2 -85 6 -161 9
-168 3 -9 345 -12 1664 -12 980 0 1662 4 1665 9 11 18 20 240 19 521 0 298
-12 857 -19 894 -2 11 -7 71 -10 131 -3 61 -7 134 -8 164 -3 49 0 58 25 85 58
62 115 212 138 366 12 79 20 187 22 320 1 105 7 120 48 120 15 0 59 50 76 87
12 25 17 62 18 125 0 96 -8 115 -54 123 -13 3 -53 10 -87 17 l-64 13 -23 58
c-24 58 -75 137 -124 190 -19 21 -25 36 -22 63 8 93 -46 187 -126 221 -43 17
-132 17 -186 -2 -44 -15 -45 -14 -113 19 -56 28 -248 101 -289 110 -5 1 -37
11 -70 21 -33 10 -67 19 -75 21 -8 1 -46 10 -85 18 -38 9 -81 18 -95 21 -14 3
-35 7 -48 9 -13 3 -60 10 -105 17 -45 6 -91 12 -102 14 -11 2 -25 4 -31 4 -7
1 -12 7 -11 14 2 53 -33 66 -66 24z"/>
</g>
</svg>
